<?xml version="1.0" standalone="no"?>
<!DOCTYPE svg PUBLIC "-//W3C//DTD SVG 20010904//EN"
 "http://www.w3.org/TR/2001/REC-SVG-20010904/DTD/svg10.dtd">
<svg version="1.0" xmlns="http://www.w3.org/2000/svg"
 width="262.000000pt" height="300.000000pt" viewBox="0 0 262.000000 300.000000"
 preserveAspectRatio="xMidYMid meet">
<metadata>
Created by potrace 1.16, written by Peter Selinger 2001-2019
</metadata>
<g transform="translate(0.000000,300.000000) scale(0.100000,-0.100000)"
fill="#000000" stroke="none">
<path d="M1930 2861 c0 -11 11 -28 24 -39 21 -16 25 -29 28 -80 2 -52 -1 -65
-18 -83 -19 -18 -25 -19 -45 -8 -23 12 -23 12 -6 -12 10 -13 24 -37 31 -54
l14 -30 11 28 c15 38 20 34 11 -8 -10 -44 -27 -65 -52 -65 -16 0 -19 -4 -13
-22 25 -85 23 -108 -13 -108 -9 0 -12 -6 -8 -16 4 -9 2 -22 -2 -28 -5 -6 -6
-41 -3 -78 4 -38 4 -68 0 -68 -3 0 -11 -41 -16 -90 -8 -69 -15 -94 -29 -105
-11 -8 -22 -15 -26 -15 -11 0 -20 43 -22 103 0 28 -4 55 -9 58 -4 3 -9 33 -11
67 -3 58 -2 62 18 63 11 0 16 3 9 5 -7 3 -10 11 -7 18 3 7 -11 21 -30 31 -21
11 -31 22 -24 26 19 12 -2 28 -30 23 -19 -4 -32 0 -41 10 -7 8 -18 13 -25 10
-8 -3 -16 2 -19 10 -4 9 -13 13 -20 10 -8 -3 -23 6 -35 21 -11 14 -24 25 -27
23 -4 -2 -15 13 -26 32 -15 29 -18 31 -19 13 0 -26 18 -71 39 -97 15 -18 15
-18 -7 -7 -13 7 -31 31 -40 53 l-17 40 -19 -21 c-11 -12 -25 -21 -33 -21 -7 0
-13 -4 -13 -10 0 -5 -8 -10 -18 -10 -23 0 -85 66 -79 84 3 8 3 17 -1 20 -3 4
-5 26 -3 49 4 57 -9 40 -30 -39 -9 -36 -25 -74 -35 -85 -15 -17 -19 -18 -34
-4 -23 20 -43 19 -65 -5 -13 -14 -22 -17 -29 -10 -7 7 -4 15 10 26 18 14 18
15 -4 4 -12 -6 -28 -8 -34 -4 -7 4 -8 3 -4 -4 4 -7 2 -12 -3 -12 -6 0 -11 -5
-11 -11 0 -6 -9 -24 -21 -40 -11 -16 -17 -29 -12 -28 21 4 34 -2 27 -12 -3 -6
-19 -9 -35 -7 -16 3 -29 1 -29 -4 0 -5 -5 -6 -10 -3 -6 3 -10 2 -10 -3 0 -6 7
-12 15 -16 8 -3 15 -12 15 -20 0 -9 6 -13 14 -10 8 3 17 1 20 -4 7 -11 -34 -9
-52 2 -7 4 -12 2 -12 -4 0 -7 -8 -9 -22 -5 -15 6 -26 1 -38 -15 -18 -24 -43
-20 -34 5 5 12 0 14 -25 9 -17 -4 -31 -3 -31 2 0 5 -4 15 -9 23 -8 12 -16 10
-50 -13 -23 -16 -41 -32 -41 -35 0 -4 -27 -26 -60 -50 -33 -24 -60 -48 -60
-52 0 -13 7 -11 43 8 18 9 38 18 45 19 8 1 17 6 20 10 4 4 -2 4 -12 0 -16 -5
-17 -4 -6 9 18 22 30 19 25 -7 -3 -12 -1 -26 4 -32 5 -6 9 -22 10 -36 0 -37 6
-69 14 -76 4 -4 7 -18 7 -31 0 -14 6 -23 15 -23 17 0 81 -37 77 -45 -1 -3 7
-22 18 -42 11 -21 20 -48 20 -61 0 -40 49 -110 111 -157 57 -44 75 -49 43 -14
-18 20 -47 109 -35 109 4 0 15 -15 24 -32 14 -29 16 -30 16 -10 1 30 9 28 52
-14 33 -32 36 -39 32 -78 -3 -24 0 -53 6 -64 13 -24 0 -124 -24 -197 -8 -22
-17 -80 -20 -128 -3 -49 -11 -101 -16 -115 -6 -15 -11 -44 -11 -64 0 -21 -5
-38 -10 -38 -6 0 -8 -10 -5 -22 3 -12 1 -30 -4 -40 -6 -11 -7 -27 -3 -36 4 -9
8 -28 9 -42 0 -14 4 -35 9 -47 4 -15 3 -23 -3 -23 -6 0 -11 6 -11 14 0 7 -6
18 -12 24 -10 8 -13 2 -15 -26 -1 -20 3 -42 8 -48 6 -8 5 -17 -5 -26 -16 -17
-48 -88 -39 -88 3 0 12 8 20 18 13 16 14 15 8 -8 -4 -14 -6 -38 -6 -55 1 -28
0 -29 -13 -12 -16 20 -28 10 -32 -27 -12 -102 -28 -186 -42 -213 -19 -39 -10
-53 18 -28 14 13 17 21 9 25 -8 6 -8 13 0 28 6 11 11 38 11 59 0 42 13 72 24
54 4 -5 0 -35 -9 -66 -17 -55 -13 -81 8 -68 7 4 6 0 -2 -10 -10 -13 -11 -17
-1 -17 7 0 1 -9 -14 -21 -14 -11 -26 -26 -26 -34 0 -7 -6 -16 -12 -19 -10 -5
-10 -7 0 -12 24 -11 11 -46 -35 -95 l-48 -51 22 -18 c17 -13 36 -17 80 -15 98
5 196 59 208 115 7 32 22 39 31 16 3 -8 13 -17 21 -20 12 -5 13 -3 6 6 -16 19
3 60 24 56 11 -2 17 3 16 12 -1 8 -6 47 -12 85 -5 40 -6 98 -2 135 5 36 9 54
10 40 1 -14 8 -36 15 -49 l13 -23 6 23 c8 29 18 19 33 -30 9 -30 8 -44 -2 -62
-7 -13 -13 -33 -13 -44 0 -14 4 -10 12 12 20 54 27 49 27 -18 0 -35 7 -82 15
-104 l14 -40 1 38 c0 46 17 40 26 -9 11 -59 116 -114 219 -114 90 0 99 15 45
79 -45 53 -48 91 -4 50 13 -12 24 -17 24 -11 0 6 -4 14 -10 17 -16 10 -12 43
7 54 16 9 16 12 -7 38 -14 15 -31 32 -37 36 -7 4 -13 13 -13 19 0 7 5 6 15 -2
12 -10 15 -10 15 2 0 8 -6 20 -12 27 -11 11 -10 13 4 8 12 -4 15 -2 12 8 -4
10 0 12 15 8 31 -8 36 21 11 62 -23 38 -18 44 18 19 22 -15 23 -15 16 10 -6
24 -4 25 17 17 19 -7 24 -15 23 -42 -1 -19 -5 -121 -8 -227 l-7 -192 24 0 24
0 7 203 c4 111 10 210 12 220 6 18 7 18 25 1 17 -15 19 -15 19 -1 0 9 -9 39
-20 68 l-20 51 20 321 c11 177 25 381 30 452 6 72 10 136 10 143 0 24 21 12
35 -20 8 -18 14 -26 15 -18 0 8 -9 30 -20 48 -25 41 -26 55 -2 43 35 -19 112
-51 122 -51 5 0 10 -6 10 -14 0 -8 7 -16 15 -20 21 -8 -57 143 -89 173 -14 12
-23 28 -19 35 3 6 3 8 -2 4 -14 -14 -35 13 -29 37 4 18 1 25 -15 30 -23 7 -29
25 -8 25 7 0 4 7 -7 15 -19 15 -19 15 2 15 12 0 22 5 22 10 0 6 -4 10 -10 10
-5 0 -10 5 -10 10 0 6 9 10 20 10 13 0 18 5 14 15 -4 8 -18 15 -33 15 l-26 1
26 14 c22 12 28 25 37 84 7 38 12 103 12 143 0 51 3 68 10 58 11 -17 13 -3 10
90 l-1 55 20 -29 c21 -31 51 -53 51 -38 0 5 -11 19 -24 31 -21 19 -24 30 -21
70 9 106 18 157 30 181 20 38 45 124 37 130 -4 3 -9 16 -11 30 -7 54 -56 119
-88 120 -7 0 -13 -9 -13 -19z m-923 -627 c3 -9 0 -40 -7 -68 -20 -77 -57 -97
-99 -52 -18 19 -22 31 -17 52 15 59 107 110 123 68z m180 -351 c-3 -34 -1 -65
4 -70 16 -16 -2 -53 -26 -53 -13 0 -25 -5 -27 -11 -5 -15 -96 38 -101 59 -3 9
-5 35 -6 57 -1 22 -4 49 -7 60 -5 18 -4 18 11 -3 9 -12 13 -27 10 -32 -3 -6
-1 -10 5 -10 6 0 10 -6 9 -12 -1 -7 3 -24 8 -38 10 -24 11 -24 18 -5 4 11 16
39 25 62 10 22 26 67 35 100 l18 58 14 -50 c8 -29 12 -76 10 -112z m454 27
c16 -62 30 -93 52 -115 17 -16 27 -24 23 -17 -15 25 -25 72 -16 72 18 0 42
-50 42 -85 0 -19 4 -37 8 -40 11 -7 20 37 13 64 -4 15 -2 22 4 18 6 -4 13 -19
16 -34 3 -16 9 -37 12 -48 6 -16 5 -17 -4 -5 -20 28 -13 -20 8 -54 18 -28 19
-41 11 -146 -9 -117 -30 -551 -30 -622 0 -101 -55 14 -75 158 -30 207 -35 259
-30 284 2 14 1 63 -4 110 -8 87 -5 124 9 115 16 -10 20 46 5 75 -8 16 -15 34
-15 41 0 7 -14 34 -30 60 -23 36 -30 57 -29 87 2 22 -2 46 -8 54 -6 7 -9 22
-7 33 2 11 6 34 8 50 3 17 5 32 5 34 2 13 11 -13 32 -89z"/>
<path d="M700 2735 c13 -14 20 -25 16 -25 -4 0 3 -10 15 -22 21 -23 58 -94 59
-113 0 -5 -27 -11 -60 -12 -64 -3 -166 -28 -175 -44 -4 -5 7 -12 24 -15 17 -4
31 -10 31 -15 0 -5 5 -9 11 -9 5 0 7 5 4 10 -3 6 -1 10 4 10 6 0 11 4 11 9 0
5 -10 7 -22 4 -17 -4 -20 -3 -12 6 28 30 236 29 218 -1 -5 -7 1 -9 18 -5 17 5
35 -1 61 -18 20 -14 43 -25 51 -25 9 0 16 -4 16 -9 0 -5 -19 -9 -42 -8 -40 1
-43 0 -40 -23 4 -28 19 -50 35 -50 6 0 7 3 4 6 -3 4 -2 14 3 24 6 12 18 15 39
12 28 -4 31 -2 31 23 0 14 -5 36 -12 48 -7 12 -13 30 -15 40 -6 36 -33 75 -85
122 -54 49 -157 105 -192 105 -18 0 -18 -2 4 -25z"/>
</g>
</svg>
