<?xml version="1.0" standalone="no"?>
<!DOCTYPE svg PUBLIC "-//W3C//DTD SVG 20010904//EN"
 "http://www.w3.org/TR/2001/REC-SVG-20010904/DTD/svg10.dtd">
<svg version="1.0" xmlns="http://www.w3.org/2000/svg"
 width="392.000000pt" height="115.000000pt" viewBox="0 0 392.000000 115.000000"
 preserveAspectRatio="xMidYMid meet">
<metadata>
Created by potrace 1.16, written by Peter Selinger 2001-2019
</metadata>
<g transform="translate(0.000000,115.000000) scale(0.100000,-0.100000)"
fill="#000000" stroke="none">
<path d="M325 953 c-161 -81 -161 -81 -153 -88 6 -6 290 55 301 65 5 4 7 28 5
52 l-3 46 -150 -75z"/>
<path d="M522 978 l3 -52 149 -33 c131 -29 171 -33 155 -19 -2 2 -73 38 -157
80 l-153 77 3 -53z"/>
<path d="M2160 688 c0 -181 4 -308 11 -333 24 -86 106 -150 187 -143 l37 3 0
60 c0 59 0 59 -33 66 -19 4 -39 12 -45 18 -8 8 -14 105 -17 314 l-5 302 -67 3
-68 3 0 -293z"/>
<path d="M2437 973 c-12 -11 -8 -548 4 -602 21 -98 76 -148 174 -158 l55 -6 0
67 c0 65 0 66 -27 66 -70 1 -73 16 -73 349 l0 291 -63 0 c-35 0 -67 -3 -70 -7z"/>
<path d="M1215 916 c-60 -28 -87 -56 -114 -116 -19 -42 -21 -65 -21 -317 l0
-273 65 0 65 0 0 130 0 130 94 0 c65 0 97 -4 104 -13 6 -7 13 -64 14 -128 l3
-114 68 -3 67 -3 0 126 c0 129 -8 164 -45 195 -14 12 -14 15 4 34 48 51 66
161 38 229 -53 126 -213 184 -342 123z m185 -135 c37 -37 46 -73 28 -119 -19
-51 -63 -72 -150 -72 l-68 0 0 60 c0 109 38 160 118 160 35 0 49 -6 72 -29z"/>
<path d="M2861 916 c-75 -25 -133 -97 -147 -185 -6 -37 -4 -41 13 -41 16 0 22
9 27 43 19 118 130 182 258 147 45 -13 95 -68 104 -116 9 -49 -10 -108 -50
-147 -18 -18 -80 -60 -137 -94 -58 -34 -120 -73 -137 -88 -48 -40 -83 -106
-89 -170 l-6 -55 229 2 c209 3 229 5 232 21 3 16 -12 17 -207 17 -206 0 -211
1 -211 20 0 33 36 94 77 131 21 19 81 59 133 89 126 73 184 131 198 196 19 88
-15 173 -85 212 -52 28 -143 37 -202 18z"/>
<path d="M3378 921 c-115 -37 -176 -143 -185 -322 -10 -174 37 -305 128 -366
37 -24 52 -28 115 -28 64 0 77 3 115 30 91 64 135 192 126 365 -10 196 -91
313 -224 325 -26 2 -60 0 -75 -4z m119 -42 c100 -37 150 -165 141 -359 -4 -86
-9 -108 -37 -164 -41 -84 -76 -109 -156 -114 -148 -8 -222 115 -213 353 3 93
8 119 30 165 33 68 44 82 88 109 38 23 101 28 147 10z"/>
<path d="M237 842 c-130 -28 -167 -39 -167 -51 0 -36 96 -411 104 -408 8 3 87
138 253 435 l35 62 -29 -1 c-15 -1 -103 -17 -196 -37z"/>
<path d="M573 818 c166 -297 245 -432 253 -435 8 -2 106 383 104 413 0 10
-331 84 -373 84 -16 0 -14 -8 16 -62z"/>
<path d="M346 607 c-80 -144 -146 -266 -146 -270 0 -4 135 -7 300 -7 165 0
300 3 300 7 0 13 -293 533 -300 533 -4 0 -73 -118 -154 -263z m120 -5 c20 -13
32 -47 24 -68 -5 -12 -23 -32 -42 -45 l-33 -24 40 -5 c27 -3 40 -10 40 -20 0
-12 -14 -15 -65 -15 -85 0 -91 19 -26 80 25 23 46 47 46 54 0 16 -30 13 -36
-4 -9 -22 -44 -19 -44 4 0 36 64 64 96 43z m153 -18 c29 -37 29 -116 0 -145
-33 -33 -80 -23 -102 23 -46 94 42 198 102 122z"/>
<path d="M1760 737 c-19 -6 -58 -34 -85 -62 -173 -172 -58 -475 180 -475 148
0 260 119 260 275 -1 162 -109 276 -260 274 -33 -1 -76 -6 -95 -12z m156 -126
c61 -37 85 -152 44 -218 -54 -90 -171 -89 -214 2 -20 42 -21 127 -1 166 33 63
112 86 171 50z"/>
<path d="M64 563 c3 -42 6 -120 6 -175 0 -106 5 -113 49 -79 l24 19 -33 156
c-36 169 -57 205 -46 79z"/>
<path d="M890 483 l-32 -156 23 -18 c44 -34 49 -27 49 79 0 55 3 133 6 175 11
127 -10 90 -46 -80z"/>
<path d="M222 291 c2 -5 65 -66 140 -136 l138 -127 139 129 c77 70 137 131
135 135 -7 11 -556 10 -552 -1z"/>
</g>
</svg>
